<?xml version="1.0" standalone="no"?>
<!DOCTYPE svg PUBLIC "-//W3C//DTD SVG 20010904//EN"
 "http://www.w3.org/TR/2001/REC-SVG-20010904/DTD/svg10.dtd">
<svg version="1.0" xmlns="http://www.w3.org/2000/svg"
 width="1800.000000pt" height="1800.000000pt" viewBox="0 0 1800.000000 1800.000000"
 preserveAspectRatio="xMidYMid meet">
<metadata>
Created by potrace 1.14, written by Peter Selinger 2001-2017
</metadata>
<g transform="translate(0.000000,1800.000000) scale(0.100000,-0.100000)"
fill="#000000" stroke="none">
<path d="M4075 14645 c-27 -14 -56 -25 -63 -25 -7 0 -15 -7 -18 -15 -4 -8 -11
-15 -16 -15 -20 0 -118 -112 -123 -142 -3 -11 -8 -25 -13 -32 -33 -41 -34
-102 -36 -2120 -2 -1103 1 -2011 5 -2018 6 -9 64 -13 239 -13 127 0 234 3 237
7 2 5 4 888 4 1963 l-1 1954 4700 -1 4700 0 0 -21 c1 -12 2 -890 3 -1952 2
-1061 5 -1935 9 -1940 9 -14 464 -13 478 1 11 11 10 4023 -2 4059 -3 11 -14
40 -23 65 -9 25 -19 55 -22 68 -3 12 -12 22 -19 22 -8 0 -14 5 -14 10 0 15
-101 109 -125 116 -11 4 -28 13 -38 22 -9 8 -20 12 -24 9 -3 -4 -13 -1 -21 6
-12 9 -1026 12 -4891 14 l-4876 2 -50 -24z m4910 -142 c6 -16 8 -16 18 -2 13
17 47 22 47 6 0 -5 8 -16 18 -23 27 -20 25 -82 -5 -110 -15 -14 -31 -20 -45
-16 -15 4 -19 2 -13 -7 14 -24 -58 0 -83 26 -18 19 -22 34 -19 66 2 25 8 41
15 40 6 -2 16 6 22 17 13 25 36 26 45 3z"/>
<path d="M8380 13783 c0 -4 -42 -8 -93 -7 -51 0 -95 -4 -99 -10 -3 -5 -16 -11
-29 -13 -12 -2 -28 -8 -35 -14 -7 -6 -18 -9 -26 -8 -34 4 -48 -2 -48 -23 0
-12 -7 -28 -15 -37 -8 -9 -23 -26 -34 -38 -19 -21 -59 -102 -66 -133 -2 -8 -4
-16 -5 -17 -2 -2 -4 -16 -5 -33 -4 -50 -5 -51 -14 -46 -5 3 -11 0 -14 -7 -6
-15 0 -16 253 -18 l205 -2 2 -186 c1 -102 3 -244 5 -316 2 -71 0 -138 -5 -147
-4 -10 -4 -18 1 -18 8 0 6 -79 -3 -88 -3 -3 0 -11 6 -19 6 -7 8 -13 5 -13 -4
0 -1 -6 6 -14 7 -7 19 -22 26 -33 12 -16 21 -18 62 -13 53 7 76 21 86 52 3 11
7 194 8 407 l1 386 455 1 455 2 0 -402 c1 -338 -1 -403 -14 -412 -9 -7 -11
-13 -3 -18 6 -3 13 -2 17 4 9 15 62 -19 70 -44 6 -17 8 -18 12 -5 2 9 24 24
48 34 25 9 44 20 43 23 -1 4 3 18 9 32 6 15 10 159 11 370 0 190 1 361 1 381
l1 37 210 -2 c205 -1 210 -1 221 21 6 12 8 27 3 34 -4 7 -8 25 -9 39 -1 14 -5
34 -9 45 -25 66 -40 95 -60 116 -18 19 -21 28 -12 42 14 22 -8 39 -41 34 -13
-3 -30 4 -39 14 -10 11 -13 20 -8 20 5 1 -7 5 -26 9 -19 5 -46 11 -60 15 -14
3 -49 8 -78 10 -29 2 -56 7 -61 10 -5 3 -12 1 -16 -4 -3 -6 -12 -8 -19 -5 -22
9 -196 10 -196 1 0 -4 -9 -3 -20 3 -11 6 -20 7 -20 3 0 -4 -63 -6 -140 -3 -77
3 -140 1 -140 -3 0 -4 -9 -3 -20 3 -11 6 -20 7 -20 3 0 -4 -45 -6 -100 -3 -55
3 -100 1 -100 -3 0 -4 -9 -3 -20 3 -11 6 -20 7 -20 3 0 -4 -45 -6 -100 -3 -55
3 -100 1 -100 -3 0 -4 -9 -3 -20 3 -11 6 -20 7 -20 3 0 -4 -45 -6 -100 -3 -55
3 -100 1 -100 -3 0 -4 -9 -3 -20 3 -11 6 -20 7 -20 3z"/>
<path d="M7737 12414 c-1 -1 -22 -4 -47 -7 -25 -2 -54 -8 -65 -12 -52 -19 -85
-37 -85 -46 0 -6 -4 -8 -10 -4 -5 3 -18 -3 -30 -15 -11 -11 -22 -20 -25 -19
-16 2 -24 -9 -79 -116 -12 -23 -22 -46 -24 -53 -1 -7 -4 -23 -6 -35 -3 -12 -5
-22 -6 -22 -2 0 -4 -385 -6 -855 -2 -470 -3 -859 -4 -865 -1 -35 6 -82 15 -90
12 -13 479 -14 492 -2 4 5 3 11 -3 15 -11 8 -13 2030 -1 2049 4 6 3 14 -2 17
-5 4 -8 18 -5 31 3 16 0 25 -8 26 -50 2 -100 4 -101 3z"/>
<path d="M8139 12398 c-1 -10 -2 -24 -3 -30 -1 -7 1 -23 5 -34 4 -12 5 -25 2
-28 -8 -8 -7 -152 1 -165 4 -6 3 -11 -1 -11 -10 0 -8 -123 2 -139 3 -6 3 -11
-2 -11 -9 0 -8 -252 1 -275 3 -8 2 -15 -2 -15 -4 0 -7 -20 -7 -45 0 -25 4 -45
8 -45 5 0 5 -6 0 -12 -10 -17 -11 -29 -2 -54 4 -12 5 -24 2 -27 -8 -8 -9 -137
-1 -137 4 0 5 -7 2 -15 -10 -25 -10 -155 0 -155 5 0 4 -6 -1 -12 -10 -15 -9
-140 1 -157 4 -6 4 -11 -1 -11 -4 0 -8 -25 -8 -55 0 -30 3 -55 8 -55 4 0 5 -5
2 -10 -10 -16 -12 -110 -2 -110 4 0 5 -5 2 -10 -10 -16 -12 -190 -2 -190 4 0
5 -5 2 -11 -10 -16 -12 -109 -2 -109 4 0 5 -5 2 -11 -10 -15 -13 -161 -4 -179
6 -13 110 -15 852 -15 465 0 849 3 853 8 4 4 8 22 9 40 0 17 4 38 9 45 4 7 4
18 -1 25 -6 7 -9 421 -9 1016 1 836 -1 1004 -13 1009 -7 3 -393 5 -857 6 -797
1 -844 0 -845 -16z"/>
<path d="M10151 12410 c-4 -3 -7 -473 -7 -1045 1 -572 -2 -1052 -5 -1067 -5
-17 -3 -28 4 -30 22 -8 472 -1 490 7 11 4 14 11 9 19 -5 6 -8 402 -8 881 1
479 -2 884 -6 900 -4 17 -9 41 -12 55 -9 46 -31 95 -54 120 -12 14 -21 32 -19
42 4 14 -23 32 -45 29 -3 0 -12 6 -18 14 -7 8 -19 15 -26 15 -8 0 -14 5 -14
10 0 6 -5 10 -10 10 -6 0 -28 8 -48 18 -21 10 -60 19 -87 21 -102 6 -137 6
-144 1z"/>
<path d="M7855 10250 c3 -5 8 -10 11 -10 2 0 4 5 4 10 0 6 -5 10 -11 10 -5 0
-7 -4 -4 -10z"/>
<path d="M566 9983 c-2 -3 -20 -6 -38 -8 -46 -4 -75 -14 -158 -53 -75 -35
-186 -176 -206 -264 -8 -33 -12 -171 -6 -183 3 -5 7 -23 9 -40 3 -30 5 -36 40
-110 24 -51 73 -129 84 -133 5 -2 9 -9 9 -15 0 -7 54 -64 120 -127 238 -227
270 -259 270 -269 0 -6 3 -11 8 -11 4 0 18 -17 32 -38 14 -20 28 -39 32 -42
14 -11 54 -136 54 -167 -1 -18 3 -33 8 -33 4 0 5 -8 1 -17 -4 -10 -9 -32 -10
-50 -2 -35 -43 -109 -75 -136 -55 -46 -103 -62 -190 -62 -47 0 -94 4 -105 9
-11 5 -26 10 -33 12 -22 4 -94 56 -125 89 -35 38 -74 102 -82 137 -8 32 -26
50 -42 40 -6 -4 -15 -50 -18 -102 -4 -52 -11 -96 -14 -98 -4 -1 -5 -21 -2 -44
6 -38 10 -43 61 -69 30 -16 84 -38 120 -51 67 -22 71 -23 130 -33 43 -6 187
-8 215 -2 121 27 186 60 251 125 27 27 54 56 59 63 18 25 55 107 60 134 1 6 3
12 5 15 10 19 18 170 9 176 -4 2 -6 15 -4 29 1 14 -2 25 -7 25 -5 0 -8 6 -7
13 3 19 -29 85 -74 151 -57 84 -40 66 -263 289 -204 206 -282 301 -309 377
-19 53 -24 124 -13 170 5 19 10 43 13 53 2 9 11 24 19 33 9 8 16 19 16 23 0 9
54 50 72 53 7 2 16 8 20 13 4 6 49 10 100 10 78 0 101 -4 141 -24 58 -28 117
-85 141 -135 17 -35 33 -52 42 -43 5 4 11 87 14 182 2 55 1 65 -7 63 -5 -1
-21 5 -38 14 -16 8 -46 19 -65 23 -19 4 -39 10 -45 13 -10 7 -17 8 -70 18 -45
8 -143 12 -149 7z"/>
<path d="M9819 9986 c-2 -2 -24 -6 -49 -9 -25 -3 -55 -8 -66 -10 -40 -10 -124
-49 -124 -59 0 -5 -4 -7 -8 -4 -5 3 -15 -3 -24 -13 -8 -10 -24 -24 -35 -32
-30 -21 -88 -109 -106 -159 -16 -46 -31 -101 -30 -110 1 -3 3 -39 6 -80 3 -41
11 -88 18 -105 7 -16 13 -35 15 -42 4 -21 58 -124 74 -141 9 -9 23 -27 31 -40
26 -37 79 -90 219 -222 73 -69 140 -134 149 -144 9 -11 26 -30 39 -43 12 -13
22 -28 22 -33 0 -6 5 -10 10 -10 6 0 10 -4 10 -10 0 -5 13 -31 28 -57 70 -120
63 -276 -17 -360 -12 -12 -42 -35 -68 -50 -41 -24 -58 -27 -128 -27 -87 0
-108 3 -142 22 -13 7 -23 10 -23 7 0 -11 -65 38 -106 81 -36 37 -82 117 -96
163 -2 8 -11 15 -20 17 -16 2 -27 -57 -33 -166 -1 -19 -3 -37 -5 -40 -1 -3 -3
-22 -4 -42 -2 -26 2 -38 11 -38 7 0 13 -3 13 -8 0 -6 88 -52 110 -57 3 -1 12
-4 20 -8 23 -8 90 -29 103 -31 7 -1 17 -4 22 -7 6 -3 22 -5 38 -4 15 0 27 -3
27 -7 0 -11 23 -6 32 7 5 6 8 6 8 -1 0 -7 21 -9 63 -6 34 2 74 5 90 6 15 0 27
4 27 8 0 5 9 8 21 8 32 0 139 55 179 92 86 81 135 181 145 296 2 20 4 42 6 47
8 25 -33 192 -50 205 -4 3 -19 26 -34 52 -49 84 -124 167 -328 363 -119 115
-155 155 -205 230 -50 76 -63 105 -70 162 -3 26 -7 50 -10 55 -3 4 -2 8 3 8 4
0 9 16 11 35 4 69 50 133 122 171 55 29 200 27 260 -4 60 -32 115 -86 140
-139 23 -49 44 -52 47 -7 0 16 2 31 3 34 1 3 3 44 5 93 2 68 -1 87 -11 88 -19
2 -24 4 -66 22 -21 10 -44 17 -52 17 -8 0 -17 4 -21 9 -3 6 -13 9 -23 9 -9 0
-30 2 -47 6 -47 9 -121 17 -126 12z"/>
<path d="M2930 9511 c-7 -14 -16 -33 -21 -41 -9 -15 -31 -61 -34 -70 -1 -3
-30 -63 -65 -135 -35 -71 -64 -132 -65 -135 0 -3 -12 -25 -25 -50 -13 -25 -24
-47 -25 -50 0 -3 -23 -50 -50 -105 -27 -55 -50 -102 -50 -105 -1 -3 -47 -98
-103 -213 -56 -114 -102 -212 -102 -217 0 -6 -4 -10 -8 -10 -4 0 -14 -16 -21
-35 -7 -19 -17 -35 -22 -35 -5 0 -9 -3 -8 -7 2 -13 -13 -53 -20 -53 -3 0 -12
-13 -19 -28 -6 -16 -21 -38 -32 -50 -18 -19 -18 -21 -2 -25 9 -3 60 -4 112 -3
l94 1 2 40 c1 42 50 175 68 187 6 4 7 8 2 8 -5 0 -3 7 4 15 7 8 9 15 6 15 -4
0 -2 6 4 13 6 6 25 41 43 77 l32 65 311 3 310 2 45 -92 c24 -51 43 -96 41
-100 -1 -5 3 -8 9 -8 5 0 8 -4 4 -9 -3 -5 -1 -12 4 -15 14 -9 42 -105 46 -155
l3 -46 161 -1 c88 0 161 3 161 7 0 4 -6 14 -14 21 -7 8 -17 24 -20 36 -4 12
-11 22 -16 22 -8 0 -210 400 -268 530 -11 25 -53 113 -92 195 -107 224 -114
239 -112 248 1 4 -2 7 -8 7 -5 0 -10 5 -10 10 0 9 -136 299 -144 308 -2 1 -24
4 -49 6 -40 2 -47 0 -57 -23z m49 -364 c19 -39 55 -117 82 -172 101 -212 123
-261 130 -282 l7 -22 -264 0 -263 0 17 37 c9 20 22 40 27 44 6 4 6 8 1 8 -5 0
-3 7 4 15 7 8 9 15 4 15 -5 0 -4 4 2 8 12 7 94 176 94 193 0 5 5 9 10 9 6 0
10 6 10 13 0 14 93 207 100 207 3 0 20 -33 39 -73z"/>
<path d="M12250 9532 c-14 -2 -97 -159 -92 -174 1 -5 -1 -8 -5 -8 -5 0 -19
-27 -33 -60 -14 -33 -28 -60 -32 -60 -5 0 -8 -5 -8 -10 0 -6 -32 -77 -72 -158
-39 -81 -72 -149 -73 -152 -4 -18 -281 -577 -312 -630 -57 -99 -68 -116 -78
-122 -13 -10 -4 -11 115 -12 l95 -2 12 63 c7 38 40 122 82 211 l70 147 313 2
313 3 24 -53 c13 -28 23 -54 22 -56 -2 -2 1 -7 6 -10 13 -9 80 -167 94 -223 6
-26 9 -54 5 -63 -3 -8 -2 -16 2 -16 33 -6 312 -4 312 2 0 5 -17 37 -38 71 -67
111 -121 215 -115 222 4 3 1 6 -5 6 -6 0 -14 9 -17 21 -4 11 -30 69 -58 127
-28 59 -51 109 -52 112 -1 3 -29 63 -63 133 -34 70 -62 132 -62 138 0 5 -5 9
-12 9 -6 0 -9 3 -5 6 3 3 -12 40 -33 82 -63 127 -104 217 -102 225 1 4 -1 7
-5 7 -5 0 -19 27 -33 60 -14 33 -28 60 -32 60 -5 0 -8 5 -8 12 0 21 -34 88
-44 89 -6 0 -22 1 -36 2 -14 2 -32 1 -40 -1z m0 -332 c0 -11 5 -20 10 -20 6 0
10 -4 10 -10 0 -5 20 -51 44 -102 24 -51 55 -118 69 -148 14 -30 46 -98 71
-150 l45 -95 -129 -3 c-71 -1 -190 -1 -265 0 l-136 3 25 48 c14 26 23 47 19
47 -3 0 1 8 10 18 8 9 17 26 19 37 1 11 6 22 9 25 4 3 34 64 69 135 91 193
113 235 122 235 4 0 8 -9 8 -20z"/>
<path d="M15550 9517 c0 -5 -4 -6 -9 -3 -12 8 -157 -30 -211 -55 -190 -88
-327 -249 -387 -454 -21 -74 -25 -236 -7 -329 15 -77 66 -208 91 -234 7 -7 13
-17 13 -21 0 -15 134 -147 175 -173 82 -51 95 -58 110 -58 8 0 15 -4 15 -9 0
-5 12 -11 28 -14 15 -3 56 -13 92 -23 100 -26 292 -23 398 6 20 5 39 9 42 8 8
-1 175 87 195 103 10 8 46 42 81 77 90 90 154 221 178 362 3 14 5 27 6 30 1 3
2 43 2 90 0 87 -26 235 -44 258 -6 6 -8 12 -5 12 8 0 -57 122 -79 150 -54 67
-94 107 -140 140 -53 40 -174 105 -174 94 0 -4 -6 -2 -12 4 -7 6 -42 16 -78
22 -36 7 -72 15 -80 18 -26 8 -200 7 -200 -1z m220 -110 c65 -23 111 -53 166
-107 32 -31 97 -130 97 -147 0 -7 3 -13 7 -13 13 0 52 -155 54 -207 0 -13 3
-23 6 -23 4 0 6 -62 4 -137 -2 -123 -8 -198 -14 -198 -2 0 -4 -9 -5 -20 -1
-11 -12 -42 -23 -68 -12 -26 -20 -49 -19 -50 4 -6 -68 -93 -102 -124 -91 -82
-229 -115 -371 -89 -34 6 -47 11 -119 45 -117 55 -237 253 -257 426 -4 28 -9
52 -13 55 -8 6 -6 209 2 274 9 66 51 174 89 228 35 51 107 118 125 118 7 0 13
4 13 9 0 11 87 44 99 37 5 -4 13 -1 16 5 12 18 182 8 245 -14z"/>
<path d="M6330 9503 c-35 -7 -69 -18 -74 -23 -6 -6 -17 -10 -26 -10 -25 0
-119 -88 -142 -134 -29 -56 -30 -59 -31 -151 -1 -70 3 -88 30 -145 17 -36 41
-78 54 -94 36 -44 139 -146 195 -191 115 -93 216 -211 224 -260 1 -5 5 -14 10
-20 15 -19 5 -140 -16 -174 -29 -51 -90 -89 -156 -99 -35 -5 -58 -5 -58 0 0 5
-4 7 -9 4 -5 -3 -30 2 -56 11 -61 20 -133 91 -169 166 -16 31 -32 60 -37 62
-12 8 -21 -13 -24 -54 -2 -20 -6 -70 -10 -111 l-7 -75 58 -28 c69 -33 161 -58
221 -60 24 -1 43 -5 43 -9 0 -4 6 -5 13 -3 6 2 41 6 77 9 70 4 79 6 155 42 98
45 177 153 191 259 8 63 8 63 1 106 -16 93 -76 183 -206 306 -187 177 -268
261 -281 292 -7 17 -16 31 -20 31 -8 0 -10 8 -14 85 -3 44 1 68 15 95 32 60
44 71 99 85 3 1 13 5 22 9 20 9 119 -1 128 -12 3 -4 12 -8 20 -10 25 -5 94
-84 114 -130 20 -44 37 -51 43 -16 1 10 5 58 7 106 3 73 1 88 -13 93 -9 3 -17
6 -19 5 -1 0 -15 6 -30 14 -68 35 -225 49 -322 29z"/>
<path d="M12965 9508 c-4 -9 -7 -26 -9 -40 -1 -13 -5 -28 -8 -33 -3 -6 -4 -20
-3 -32 1 -13 -1 -23 -5 -23 -4 0 -7 -7 -7 -16 0 -16 23 -16 97 0 56 13 97 20
125 21 17 1 32 3 35 5 3 1 21 3 40 4 19 0 41 5 48 9 7 5 12 4 12 -3 0 -6 5 -8
12 -4 19 12 137 12 141 0 5 -16 -1 -1011 -7 -1070 -5 -60 -16 -134 -22 -161
-5 -20 -1 -21 138 -20 l143 0 -4 55 c-2 30 -6 59 -9 64 -3 5 -7 52 -9 105 -6
148 -9 1022 -3 1030 6 9 140 10 140 1 0 -3 21 -6 48 -6 61 -2 108 -8 291 -41
32 -6 33 -5 25 18 -4 13 -8 40 -10 59 -1 19 -3 36 -4 38 -3 2 -6 16 -9 30 0 4
-261 6 -578 5 -387 -1 -582 2 -590 9 -9 7 -14 6 -18 -4z"/>
<path d="M1605 9502 c-2 -3 -65 -5 -139 -4 l-134 0 9 -27 c21 -63 27 -205 27
-651 0 -447 -8 -620 -31 -656 -11 -18 9 -21 153 -20 151 1 139 -7 124 81 -3
22 -7 79 -9 127 -2 47 -5 90 -7 95 -2 4 -4 55 -4 113 l1 105 105 2 c96 2 155
7 155 13 0 1 14 3 30 5 61 6 186 67 233 112 7 7 21 18 30 25 29 22 87 131 100
186 7 33 6 189 -1 220 -9 34 -55 113 -85 147 -32 34 -110 88 -129 88 -7 0 -13
4 -13 9 0 4 -3 7 -7 7 -5 -1 -10 0 -13 1 -3 1 -12 3 -20 5 -8 2 -37 8 -65 15
-47 10 -299 12 -310 2z m240 -85 c19 -6 35 -14 35 -19 0 -4 6 -8 13 -8 35 0
97 -102 113 -187 11 -54 11 -131 1 -178 -5 -22 -10 -51 -12 -64 -1 -13 -9 -27
-16 -32 -7 -4 -10 -11 -7 -15 6 -6 -27 -57 -57 -90 -17 -18 -103 -63 -109 -57
-3 3 -11 1 -18 -4 -16 -13 -168 -17 -186 -5 -10 7 -12 77 -10 333 l3 324 30 6
c50 10 184 8 220 -4z"/>
<path d="M10406 9485 c-2 -11 -8 -46 -12 -79 l-7 -59 29 6 c16 2 54 10 84 16
62 12 127 21 183 25 20 2 40 6 43 9 4 4 14 2 24 -3 10 -5 21 -6 24 -2 4 4 32
7 62 8 41 1 55 -3 58 -15 7 -28 -1 -1034 -9 -1086 -4 -27 -9 -59 -10 -70 -2
-11 -6 -36 -9 -55 l-7 -36 143 2 c172 2 163 1 148 19 -7 9 -10 18 -7 21 3 3 1
18 -4 32 -6 14 -13 96 -16 181 -7 201 -10 991 -3 1000 4 6 145 7 145 1 0 -1
25 -3 55 -5 74 -5 132 -12 150 -18 14 -5 43 -11 121 -23 l37 -6 -10 53 c-5 28
-10 63 -11 76 l-2 25 -597 2 c-589 1 -597 1 -602 -19z"/>
<path d="M3874 9482 c24 -86 27 -165 28 -652 0 -465 -2 -522 -26 -675 0 -6 37
-10 92 -10 l94 0 -7 35 c-4 19 -9 67 -12 105 -8 110 -12 815 -4 815 3 0 134
-126 291 -280 157 -155 379 -373 493 -486 177 -173 213 -205 235 -202 l26 3 0
103 c1 57 -2 106 -7 109 -4 2 -4 9 -1 15 9 15 11 219 1 225 -4 2 -4 9 -1 15
10 15 11 219 1 225 -4 2 -5 9 -1 14 3 6 8 122 10 259 2 137 8 278 14 312 5 35
10 69 10 76 0 9 -25 12 -91 12 l-91 0 7 -37 c4 -21 9 -243 12 -493 l4 -455
-78 77 c-43 42 -247 243 -453 447 -206 204 -376 371 -377 371 -1 0 -21 20 -43
44 -37 40 -46 44 -86 44 -37 0 -44 -3 -40 -16z"/>
<path d="M5453 9486 c7 -19 18 -74 23 -123 7 -60 12 -1017 5 -1028 -3 -5 -6
-31 -7 -56 -1 -25 -7 -63 -13 -85 -7 -25 -7 -40 0 -44 5 -4 71 -6 147 -5 110
1 136 4 134 14 -2 8 -5 32 -8 55 -3 23 -8 52 -10 66 -9 44 -13 215 -13 540 -1
425 4 535 28 641 l9 39 -150 0 c-126 0 -149 -2 -145 -14z"/>
<path d="M7055 9490 c6 -10 10 -34 22 -140 8 -67 8 -983 1 -1060 -5 -48 -8
-69 -21 -133 -1 -8 41 -12 141 -13 l144 -1 -7 51 c-12 84 -16 160 -21 384 -4
171 -3 212 8 213 7 0 45 2 84 3 39 1 75 5 81 9 6 4 13 4 17 0 9 -9 66 -9 66 0
0 5 5 5 11 1 6 -4 88 -8 183 -9 94 -2 193 -4 220 -4 l49 -1 -6 -252 c-3 -139
-9 -269 -12 -288 -4 -19 -8 -44 -10 -55 -2 -11 -5 -26 -7 -34 -2 -12 21 -15
139 -16 130 -2 142 -1 146 16 3 11 2 21 -2 24 -8 4 -13 47 -15 127 0 27 -4 48
-8 48 -4 0 -5 213 -3 473 2 416 6 562 15 562 1 0 3 14 4 30 1 17 5 36 9 43 17
27 -7 32 -143 32 -127 0 -161 -6 -143 -24 17 -16 28 -170 28 -386 l0 -184 -75
-3 c-41 -1 -201 -3 -355 -4 l-280 -2 1 184 c1 176 8 321 18 364 2 11 6 27 8
35 2 13 -20 15 -145 18 -99 2 -146 -1 -142 -8z"/>
<path d="M14350 9487 c0 -8 3 -17 6 -20 4 -4 8 -21 10 -39 2 -18 7 -58 10 -88
9 -89 11 -961 1 -967 -4 -2 -3 -11 4 -19 6 -8 7 -14 2 -14 -5 0 -9 -17 -8 -37
0 -21 -5 -60 -12 -88 -7 -27 -13 -55 -13 -60 0 -7 52 -11 146 -11 l145 0 -7
51 c-13 91 -14 99 -20 195 -9 125 -9 726 0 860 9 141 17 204 26 208 4 2 6 12
3 22 -5 19 -15 20 -149 20 -113 0 -144 -3 -144 -13z"/>
<path d="M16624 9473 c23 -108 25 -172 25 -638 1 -461 -5 -607 -25 -677 -4
-14 5 -16 83 -13 48 1 91 3 95 4 7 1 4 21 -8 71 -9 37 -18 880 -9 880 8 0 68
-59 530 -515 447 -441 468 -461 492 -457 l21 3 1 492 c2 597 6 758 26 847 l7
30 -97 0 c-96 0 -97 0 -91 -22 4 -13 10 -36 12 -53 9 -49 13 -895 5 -895 -8 0
-212 199 -668 651 -318 316 -322 319 -363 319 -40 0 -41 -1 -36 -27z"/>
<path d="M3833 7814 c-2 -7 0 -21 6 -32 6 -11 7 -22 4 -26 -3 -3 -1 -6 6 -6 7
0 10 -4 7 -9 -3 -5 10 -25 29 -44 23 -23 33 -41 30 -56 -4 -21 3 -25 38 -22 9
1 17 -3 17 -9 0 -6 5 -8 10 -5 6 3 10 2 10 -3 0 -5 28 -22 63 -38 61 -28 70
-30 134 -38 17 -2 36 -7 42 -10 6 -4 20 -2 31 4 14 8 20 8 20 0 0 -7 6 -7 21
0 15 8 24 8 34 0 9 -8 15 -8 20 0 4 6 12 7 24 0 12 -6 22 -5 28 1 6 6 13 7 16
2 3 -5 29 -7 57 -3 27 4 50 4 50 1 0 -3 11 -6 25 -6 14 0 25 4 25 8 0 4 10 2
23 -4 12 -7 24 -13 27 -13 3 -1 5 -44 5 -96 0 -52 4 -100 8 -107 4 -7 0 -20
-10 -30 -16 -16 -42 -18 -291 -17 -150 0 -275 -3 -278 -8 -3 -5 -10 -6 -15 -3
-5 4 -9 1 -9 -4 0 -6 -5 -11 -10 -11 -12 0 -80 -68 -78 -78 5 -18 -14 -82 -24
-82 -6 0 -9 -3 -6 -6 4 -3 0 -21 -8 -40 -8 -19 -14 -36 -13 -39 1 -5 -7 -30
-27 -80 -4 -11 -8 -24 -9 -30 0 -5 -3 -14 -6 -20 -4 -5 -12 -28 -19 -50 -10
-36 -23 -67 -50 -130 -5 -11 -12 -36 -16 -55 -10 -44 -9 -40 -22 -73 -7 -16
-12 -35 -12 -43 0 -8 -4 -14 -8 -14 -4 0 -8 -10 -9 -22 -1 -11 -6 -24 -10 -27
-5 -3 -8 -13 -8 -21 1 -8 -2 -19 -5 -25 -4 -5 -18 -44 -31 -85 -13 -41 -26
-77 -29 -80 -3 -3 -7 -12 -9 -20 -2 -8 -4 -19 -6 -25 -1 -5 -7 -23 -13 -38 -7
-15 -11 -31 -10 -35 1 -4 -8 -29 -20 -55 -12 -26 -29 -73 -38 -103 -8 -29 -20
-54 -25 -54 -6 0 -9 -8 -7 -17 2 -10 -7 -47 -20 -83 -22 -60 -29 -83 -31 -102
-1 -5 -7 -8 -15 -8 -9 0 -13 -13 -12 -42 0 -23 -4 -43 -11 -45 -6 -2 -9 -13
-6 -23 3 -11 0 -20 -6 -20 -6 0 -10 -3 -9 -7 3 -12 -33 -116 -46 -132 -6 -8
-9 -15 -6 -15 3 -1 -4 -27 -15 -58 -15 -45 -24 -58 -40 -59 -18 0 -18 -1 -4
-11 15 -10 15 -17 -7 -76 -13 -36 -21 -69 -18 -74 3 -4 1 -8 -5 -8 -5 0 -13
-15 -17 -32 -3 -18 -16 -43 -28 -55 -12 -13 -21 -37 -22 -60 -3 -47 -6 -60
-40 -148 -26 -71 -35 -100 -36 -122 -1 -7 -4 -13 -8 -13 -3 0 -14 -28 -25 -62
-10 -35 -22 -68 -26 -74 -5 -6 -10 -23 -11 -38 -1 -14 -6 -26 -10 -26 -4 0 -7
-3 -6 -7 0 -5 -1 -15 -5 -23 -35 -92 -65 -185 -61 -192 3 -4 1 -8 -5 -8 -5 0
-13 -15 -16 -32 -4 -18 -12 -44 -18 -58 -6 -14 -12 -29 -13 -35 -1 -5 -3 -13
-4 -17 -1 -5 -3 -11 -5 -15 -1 -5 -6 -19 -12 -33 -6 -14 -16 -43 -23 -65 -7
-22 -15 -47 -18 -55 -10 -29 -8 -174 3 -214 32 -119 123 -230 231 -283 l59
-28 5838 -2 c5380 -1 5842 0 5883 15 24 9 44 20 44 24 0 4 8 8 19 8 22 0 151
122 151 143 0 9 4 17 10 19 5 1 19 30 31 63 25 71 32 190 13 253 -6 23 -10 42
-7 42 3 0 -2 12 -12 26 -9 14 -14 32 -11 39 3 8 0 15 -5 17 -6 2 -11 10 -12
18 -2 8 -6 21 -10 28 -5 6 -6 12 -3 12 3 0 -4 21 -15 48 -12 26 -23 56 -25 67
-9 38 -21 71 -33 95 -5 9 -12 30 -16 48 -3 18 -11 32 -15 32 -5 0 -7 7 -4 15
4 8 1 21 -5 29 -6 7 -8 16 -4 19 3 4 1 7 -5 7 -7 0 -11 3 -10 8 2 8 -54 185
-62 192 -3 3 -7 12 -9 20 -2 8 -4 20 -6 25 -1 6 -7 23 -13 38 -7 15 -15 40
-18 55 -4 15 -10 32 -14 37 -7 10 -23 61 -25 80 0 6 -6 19 -12 30 -6 11 -11
23 -11 28 -1 4 -10 33 -22 65 -12 31 -23 62 -25 67 -1 6 -5 17 -8 25 -3 8 -11
33 -18 55 -6 22 -16 49 -22 60 -6 11 -13 30 -14 42 -2 13 -12 42 -22 66 -10
23 -22 57 -26 75 -3 17 -11 34 -16 37 -5 4 -9 16 -9 29 0 12 -4 26 -8 31 -5 6
-17 37 -27 70 -10 33 -20 65 -24 70 -3 6 -6 15 -6 20 -1 6 -4 17 -8 25 -22 53
-45 133 -40 146 3 9 -1 14 -12 14 -9 0 -13 5 -10 10 4 6 1 17 -5 25 -7 8 -10
15 -7 15 3 0 0 12 -8 27 -8 15 -12 30 -9 35 3 4 0 8 -5 8 -6 0 -11 9 -11 20 0
12 -7 34 -15 50 -8 16 -17 39 -19 52 -3 13 -5 24 -7 26 -1 1 -2 5 -4 10 -1 4
-7 19 -13 35 -7 15 -14 39 -16 53 -3 14 -10 32 -17 40 -6 8 -9 14 -5 14 4 0 0
13 -9 29 -8 17 -17 38 -18 48 -4 18 -7 28 -30 88 -7 17 -11 34 -9 39 1 4 -3
14 -9 22 -6 8 -8 14 -3 14 5 0 3 4 -3 8 -7 5 -14 20 -15 35 -1 15 -6 27 -11
27 -5 0 -5 9 -2 20 3 11 3 20 -2 20 -4 0 -13 15 -19 33 -7 17 -17 48 -24 67
-24 66 -27 75 -55 155 -15 44 -29 90 -30 102 -1 12 -6 28 -12 35 -9 11 -24 49
-28 68 -7 39 -81 124 -101 116 -8 -3 -15 -2 -18 2 -3 5 -123 8 -268 7 -145 0
-273 3 -285 8 -18 8 -20 15 -16 46 6 42 6 38 0 116 -3 33 -1 67 4 76 9 17 59
32 59 18 0 -4 14 -4 30 1 17 5 30 5 30 2 0 -9 64 -7 79 3 6 3 11 1 11 -5 0 -8
6 -7 21 1 15 7 24 8 32 0 6 -6 16 -7 28 -1 12 7 20 6 24 0 5 -7 11 -8 19 -1 6
6 18 6 25 2 8 -5 26 -5 41 -1 15 4 34 3 43 -2 11 -6 17 -5 17 2 0 6 5 8 10 5
6 -4 17 -2 24 4 8 7 18 11 22 9 5 -1 31 8 58 20 27 12 52 22 56 22 4 0 11 7
14 16 3 8 10 13 15 9 5 -3 12 -1 16 5 4 6 11 8 16 5 5 -4 9 0 9 8 0 8 15 31
33 50 46 51 87 130 73 143 -18 16 -10317 14 -10323 -2z m1865 -298 c7 -4 12
-4 12 1 0 4 41 8 90 8 50 0 90 -3 90 -7 0 -4 13 -3 30 2 18 5 32 5 36 -1 3 -5
11 -6 17 -2 15 9 157 10 157 1 0 -4 13 -3 30 2 18 5 32 5 36 -1 3 -5 10 -6 16
-2 15 9 271 8 286 -1 7 -4 12 -4 12 1 0 10 131 10 148 -1 7 -4 12 -4 12 1 0 4
41 8 90 8 50 0 90 -3 90 -7 0 -4 13 -3 30 2 18 5 32 5 36 -1 3 -5 11 -6 17 -2
15 9 157 10 157 1 0 -4 13 -3 30 2 18 5 32 5 36 -1 3 -5 10 -6 16 -2 15 9 271
8 286 -1 7 -4 12 -4 12 1 0 10 131 10 148 -1 7 -4 12 -4 12 1 0 4 41 8 90 8
50 0 90 -3 90 -7 0 -4 13 -3 30 2 18 5 32 5 36 -1 3 -5 11 -6 17 -2 15 9 157
10 157 1 0 -4 13 -3 30 2 18 5 32 5 36 -1 3 -5 10 -6 16 -2 15 9 271 8 286 -1
7 -4 12 -4 12 1 0 10 131 10 148 -1 7 -4 12 -4 12 1 0 4 41 8 90 8 50 0 90 -3
90 -7 0 -4 13 -3 30 2 18 5 32 5 36 -1 3 -5 11 -6 17 -2 15 9 157 10 157 1 0
-4 13 -3 30 2 18 5 32 5 36 -1 3 -5 10 -6 16 -2 15 9 271 8 286 -1 7 -4 12 -4
12 1 0 10 131 10 148 -1 7 -4 12 -4 12 1 0 4 41 8 90 8 50 0 90 -3 90 -7 0 -4
13 -3 30 2 18 5 32 5 36 -1 3 -5 11 -6 17 -2 15 9 157 10 157 1 0 -4 13 -3 30
2 18 5 32 5 36 -1 3 -5 10 -6 16 -3 15 9 318 11 318 2 0 -4 13 -3 30 2 18 5
32 5 36 -1 3 -5 11 -6 17 -2 15 9 157 10 157 1 0 -4 13 -3 30 2 18 5 32 5 36
-1 3 -5 10 -6 16 -2 15 9 271 8 286 -1 7 -4 12 -4 12 1 0 10 131 10 148 -1 7
-4 12 -4 12 1 0 4 41 8 90 8 50 0 90 -3 90 -7 0 -4 13 -3 30 2 18 5 32 5 36
-1 3 -5 11 -6 17 -2 15 9 157 10 157 1 0 -4 13 -3 30 2 18 5 32 5 36 -1 3 -5
10 -6 16 -2 15 9 271 8 286 -1 7 -4 12 -4 12 1 0 10 131 10 148 -1 7 -4 12 -4
12 1 0 10 123 8 139 -1 6 -4 11 -4 11 1 0 13 161 8 168 -5 6 -8 8 -229 3 -252
-2 -8 -6859 -6 -6867 3 -5 4 -8 63 -9 130 l0 122 35 5 c48 7 93 5 108 -4z
m4315 -2816 c3 -3 7 -14 9 -25 1 -11 5 -22 8 -25 3 -3 14 -34 25 -70 10 -36
22 -69 26 -75 4 -5 9 -19 11 -30 1 -11 5 -22 8 -25 8 -8 53 -149 53 -165 0 -8
4 -15 8 -15 4 0 11 -15 15 -32 10 -43 9 -39 23 -73 7 -16 18 -49 24 -72 6 -24
15 -43 19 -43 18 0 7 -70 -14 -90 -26 -24 -37 -25 -44 -5 -9 21 -32 19 -39 -5
-6 -20 -15 -20 -1179 -20 l-1173 0 -27 25 c-31 29 -34 65 -9 121 10 22 18 44
19 49 0 6 6 23 12 38 7 15 15 40 18 55 4 15 9 32 13 37 3 6 6 16 7 23 5 28 14
42 29 42 8 0 15 5 15 10 0 6 -4 10 -9 10 -11 0 -9 33 2 41 4 3 10 18 13 34 3
15 14 45 25 66 11 22 17 39 13 39 -4 0 -2 6 3 13 6 6 9 20 8 30 -2 9 1 17 5
17 5 0 12 15 15 34 4 18 15 47 25 63 l17 29 1011 0 c556 -1 1013 -3 1015 -6z"/>
</g>
</svg>
